<svg xmlns="http://www.w3.org/2000/svg" viewBox="0 0 942.17 941.09"><defs><style>.cls-1{fill:#6c6d96;}.cls-2{fill:#ebe488;}.cls-3{fill:#df6c2d;}.cls-4{fill:#2a88ab;}</style></defs><title>Asset 12</title><g id="Layer_2" data-name="Layer 2"><g id="Layer_1-2" data-name="Layer 1"><rect class="cls-1" width="135" height="135"/><rect class="cls-2" x="134.35" width="135" height="135"/><rect class="cls-2" x="134.35" y="134.45" width="135" height="135"/><rect class="cls-2" y="134.45" width="135" height="135"/><rect class="cls-3" y="267.97" width="135" height="135"/><rect class="cls-3" x="269.42" y="267.97" width="135" height="135"/><rect class="cls-3" x="134.35" y="402.47" width="135" height="135"/><rect class="cls-4" x="134.35" y="536.58" width="135" height="135"/><rect class="cls-4" x="134.35" y="806.09" width="135" height="135"/><rect class="cls-4" x="404.42" y="806.09" width="135" height="135"/><rect class="cls-4" x="672.42" y="402.47" width="135" height="135"/><rect class="cls-3" x="269.42" y="806.09" width="135" height="135"/><rect class="cls-3" x="538.42" y="806.09" width="135" height="135"/><rect class="cls-3" x="672.42" y="671.08" width="135" height="135"/><rect class="cls-3" x="807.17" y="671.08" width="135" height="135"/><rect class="cls-2" x="134.35" y="267.97" width="135" height="135"/><rect class="cls-2" x="404.42" y="267.97" width="135" height="135"/><rect class="cls-2" y="402.47" width="135" height="135"/><rect class="cls-2" y="536.58" width="135" height="135"/><rect class="cls-2" x="672.42" y="806.09" width="135" height="135"/><rect class="cls-1" x="538.42" y="267.97" width="135" height="135"/><rect class="cls-1" x="807.17" y="402.47" width="135" height="135"/><rect class="cls-1" x="672.42" y="536.58" width="135" height="135"/><rect class="cls-1" x="672.42" y="267.97" width="135" height="135"/><rect class="cls-1" x="807.17" y="536.58" width="135" height="135"/><rect class="cls-1" x="134.35" y="671.08" width="135" height="135"/><rect class="cls-1" y="671.08" width="135" height="135"/></g></g></svg>